HIERARCHY
ROOT Hips
{
	OFFSET 0.00000 0.00000 0.00000
	CHANNELS 6 Xposition Yposition Zposition Zrotation Yrotation Xrotation 
	JOINT LHipJoint
	{
		OFFSET 0 0 0
		CHANNELS 3 Zrotation Yrotation Xrotation
		JOINT LeftHip
		{
			OFFSET 1.53794 -1.55850 0.93568
			CHANNELS 3 Zrotation Yrotation Xrotation
			JOINT LeftKnee
			{
				OFFSET 2.28545 -6.27922 0.00000
				CHANNELS 3 Zrotation Yrotation Xrotation
				JOINT LeftAnkle
				{
					OFFSET 2.37329 -6.52057 0.00000
					CHANNELS 3 Zrotation Yrotation Xrotation
					JOINT LeftToe
					{
						OFFSET 0.14846 -0.40788 2.09160
						CHANNELS 3 Zrotation Yrotation Xrotation
						End Site
						{
							OFFSET 0.00000 -0.00000 1.07536
						}
					}
				}
			}
		}
	}
	JOINT RHipJoint
	{
		OFFSET 0 0 0
		CHANNELS 3 Zrotation Yrotation Xrotation
		JOINT RightHip
		{
			OFFSET -1.78290 -1.55850 0.93568
			CHANNELS 3 Zrotation Yrotation Xrotation
			JOINT RightKnee
			{
				OFFSET -2.24144 -6.15831 0.00000
				CHANNELS 3 Zrotation Yrotation Xrotation
				JOINT RightAnkle
				{
					OFFSET -2.35091 -6.45907 0.00000
					CHANNELS 3 Zrotation Yrotation Xrotation
					JOINT RightToe
					{
						OFFSET -0.14428 -0.39641 2.07944
						CHANNELS 3 Zrotation Yrotation Xrotation
						End Site
						{
							OFFSET -0.00000 -0.00000 1.06864
						}
					}
				}
			}
		}
	}
	JOINT lowerback
	{
		OFFSET 0 0 0
		CHANNELS 3 Zrotation Yrotation Xrotation
		JOINT Chest
		{
			OFFSET -0.08841 2.11430 -0.15818
			CHANNELS 3 Zrotation Yrotation Xrotation
			JOINT Chest2
			{
				OFFSET -0.00033 2.12605 -0.08097
				CHANNELS 3 Zrotation Yrotation Xrotation
				JOINT lowerneck
				{
					OFFSET 0 0 0
					CHANNELS 3 Zrotation Yrotation Xrotation
					JOINT Neck
					{
						OFFSET 0.04431 1.59447 0.43193
						CHANNELS 3 Zrotation Yrotation Xrotation
						JOINT Head
						{
							OFFSET 0.00455 1.62017 -0.58852
							CHANNELS 3 Zrotation Yrotation Xrotation
							End Site
							{
								OFFSET -0.00920 1.72955 -0.25850
							}
						}
					}
				}
				JOINT LeftCollar
				{
					OFFSET 0 0 0
					CHANNELS 3 Zrotation Yrotation Xrotation
					JOINT LeftShoulder
					{
						OFFSET 2.86490 1.49927 -0.33774
CHANNELS 3 Zrotation Xrotation Yrotation
						JOINT LeftElbow
						{
OFFSET 0 -4.874080 0.000000
CHANNELS 3 Zrotation Xrotation Yrotation
							JOINT LeftWrist
							{
OFFSET 0 -2.767290 0.000000
CHANNELS 3 Zrotation Xrotation Yrotation
								JOINT lhand
								{
									OFFSET 0 0 0
CHANNELS 3 Zrotation Xrotation Yrotation
									JOINT LFingers
									{
OFFSET 0 -0.989220 0.000000
CHANNELS 3 Zrotation Xrotation Yrotation
										End Site
										{
OFFSET 0 -0.797530 0.000000
										}
									}
								}
								JOINT LThumb
								{
OFFSET 0 0.000000 0.000000
CHANNELS 3 Zrotation Xrotation Yrotation
									End Site
									{
OFFSET 0 -0.809720 0.809720
									}
								}
							}
						}
					}
				}
				JOINT RightCollar
				{
					OFFSET 0 0 0
					CHANNELS 3 Zrotation Yrotation Xrotation
					JOINT RightShoulder
					{
						OFFSET -2.94414 1.45463 -0.25291
CHANNELS 3 Zrotation Xrotation Yrotation
						JOINT RightElbow
						{
OFFSET 0 -4.714040 0.000000
CHANNELS 3 Zrotation Xrotation Yrotation
							JOINT RightWrist
							{
OFFSET 0 -2.834680 0.000000
CHANNELS 3 Zrotation Xrotation Yrotation
								JOINT rhand
								{
									OFFSET 0 0 0
CHANNELS 3 Zrotation Xrotation Yrotation
									JOINT RFingers
									{
OFFSET 0 -0.868200 0.000000
CHANNELS 3 Zrotation Xrotation Yrotation
										End Site
										{
OFFSET 0 -0.699960 0.000000
										}
									}
								}
								JOINT RThumb
								{
OFFSET 0 0.000000 0.000000
CHANNELS 3 Zrotation Xrotation Yrotation
									End Site
									{
OFFSET 0 -0.710650 0.710650
									}
								}
							}
						}
					}
				}
			}
		}
	}
}
MOTION
Frames: 11
Frame Time: 0.008333333333333333
1.199900 15.425000 30.648800 -179.359000 6.762400 -172.218000 0.000000 0.000000 0.000000 -11.899900 -17.666000 -33.815100 1.782600 8.397700 23.928700 -1.960400 25.914900 1.096400 0.160600 -2.582300 -7.118000 0.000000 0.000000 0.000000 24.629100 0.182400 20.421100 0.000000 -0.000000 0.000000 0.440000 -11.717400 -5.568800 -2.182500 9.236300 -26.537400 -4.832300 6.065100 -4.384300 -0.159500 8.362000 0.778900 3.008000 4.095900 2.584800 0.501100 -0.102100 -30.740500 0.337500 -6.384000 45.617800 -2.646600 -3.280900 27.561200 -0.000000 0.000000 0.000000 3.074400 4.392600 52.869600 5.955000 -10.187100 0.531300 -1.227900 110.100600 -5.393400 0.000000 0.000000 0.000000 -7.125000 0.000000 0.000000 -22.744800 34.563900 -6.246500 -0.000000 0.000000 0.000000 -3.100600 -6.002100 19.339200 -25.382300 -36.592200 -8.516700 -0.058800 21.694700 7.509800 0.000000 0.000000 0.000000 7.125000 0.000000 -0.000000 22.313300 36.601200 4.914800
1.194224 15.426878 30.567790 -179.343558 6.796791 -172.200888 0.000000 0.000000 0.000000 -12.024566 -17.600558 -33.787888 1.823710 8.487934 24.206705 -1.820250 25.337855 1.798570 0.160099 -2.578293 -7.106815 0.000000 0.000000 0.000000 24.560235 0.147884 20.679113 0.000000 0.000000 0.000000 0.433030 -11.605797 -5.215920 -2.259921 9.385549 -27.010731 -4.789395 6.110259 -4.980419 -0.151153 8.453987 0.821054 3.075988 4.128705 2.959007 0.571718 -0.086407 -29.787245 0.494136 -6.482581 45.487708 -2.537460 -3.334489 26.937661 0.000000 0.000000 0.000000 3.030076 4.408001 53.997814 5.948197 -10.175706 0.530090 -1.222850 111.299640 -5.456881 0.000000 0.000000 0.000000 -7.125000 0.000000 0.000000 -22.757780 34.622790 -6.215156 0.000000 0.000000 0.000000 -3.033321 -5.719462 19.269709 -25.499662 -36.710021 -8.586942 -0.066146 21.635268 7.469858 0.000000 0.000000 0.000000 7.125000 0.000000 0.000000 22.296230 36.564723 4.931870
1.188548 15.428756 30.486780 -179.328115 6.831181 -172.183776 0.000000 0.000000 0.000000 -12.149232 -17.535115 -33.760676 1.864820 8.578167 24.484710 -1.680099 24.760810 2.500741 0.159598 -2.574287 -7.095629 0.000000 0.000000 0.000000 24.491370 0.113368 20.937127 0.000000 0.000000 0.000000 0.426060 -11.494195 -4.863040 -2.337341 9.534797 -27.484061 -4.746490 6.155417 -5.576537 -0.142806 8.545973 0.863207 3.143977 4.161509 3.333214 0.642335 -0.070714 -28.833989 0.650772 -6.581162 45.357616 -2.428320 -3.388079 26.314122 0.000000 0.000000 0.000000 2.985752 4.423401 55.126027 5.941394 -10.164312 0.528879 -1.217800 112.498680 -5.520362 0.000000 0.000000 0.000000 -7.125000 0.000000 0.000000 -22.770760 34.681680 -6.183812 0.000000 0.000000 0.000000 -2.966042 -5.436825 19.200218 -25.617025 -36.827843 -8.657184 -0.073491 21.575835 7.429917 0.000000 0.000000 0.000000 7.125000 0.000000 0.000000 22.279160 36.528245 4.948940
1.182569 15.432550 30.404308 -179.344436 6.860656 -172.176748 0.000000 0.000000 0.000000 -12.333719 -17.404962 -33.716877 1.901847 8.658116 24.731885 -1.555856 24.159640 2.994385 0.148661 -2.479579 -6.833265 0.000000 0.000000 0.000000 24.389734 0.069576 21.195871 0.000000 0.000000 0.000000 0.418334 -11.384382 -4.423291 -2.409216 9.669778 -27.914940 -4.750423 6.163116 -5.886562 -0.152356 8.575619 0.889782 3.178765 4.168878 3.532649 0.895187 -0.032309 -28.565553 0.531802 -6.504290 45.187367 -2.486716 -3.334708 25.948770 0.000000 0.000000 0.000000 2.929631 4.365167 56.234251 5.940187 -10.162296 0.528652 -1.216052 113.515663 -5.595741 0.000000 0.000000 0.000000 -7.125000 0.000000 0.000000 -22.789538 34.751334 -6.147729 0.000000 0.000000 0.000000 -2.878294 -5.295986 19.220370 -25.678398 -36.889348 -8.693924 -0.067401 21.544763 7.406537 0.000000 0.000000 0.000000 7.125000 0.000000 0.000000 22.277417 36.506212 4.961448
1.176392 15.437600 30.320877 -179.381581 6.886908 -172.176331 0.000000 0.000000 0.000000 -12.557425 -17.232383 -33.662202 1.936196 8.731321 24.958846 -1.442041 23.542653 3.351313 0.130881 -2.325406 -6.406220 0.000000 0.000000 0.000000 24.266613 0.019701 21.455095 0.000000 0.000000 0.000000 0.410112 -11.275742 -3.926589 -2.477455 9.795404 -28.317987 -4.785064 6.146254 -6.009016 -0.173642 8.564392 0.906142 3.191787 4.159571 3.617499 1.267516 0.020989 -28.746104 0.232136 -6.312387 44.990789 -2.654955 -3.211210 25.752693 0.000000 0.000000 0.000000 2.865774 4.258657 57.329367 5.942650 -10.166428 0.529069 -1.216469 114.413284 -5.678921 0.000000 0.000000 0.000000 -7.125000 0.000000 0.000000 -22.812117 34.828045 -6.108539 0.000000 0.000000 0.000000 -2.777126 -5.248114 19.299293 -25.703064 -36.913931 -8.708698 -0.052501 21.532283 7.394017 0.000000 0.000000 0.000000 7.125000 0.000000 0.000000 22.285722 36.493650 4.970963
1.170406 15.443380 30.237620 -179.448416 6.900694 -172.177302 0.000000 0.000000 0.000000 -12.812131 -17.072955 -33.593247 1.970223 8.803520 25.182882 -1.339208 22.951511 3.623834 0.112503 -2.157359 -5.941073 0.000000 0.000000 0.000000 24.111666 -0.042397 21.705412 0.000000 0.000000 0.000000 0.401438 -11.171365 -3.411508 -2.532281 9.896315 -28.641749 -4.852980 6.121927 -6.124534 -0.200796 8.545899 0.920975 3.215087 4.146375 3.693746 1.511459 0.054345 -28.886088 0.046505 -6.179776 44.840708 -2.754847 -3.124130 25.610821 0.000000 0.000000 0.000000 2.798289 4.146902 58.396427 5.944157 -10.168962 0.529322 -1.202355 115.287562 -5.753446 0.000000 0.000000 0.000000 -7.125000 0.000000 0.000000 -22.821084 34.897646 -6.069470 0.000000 0.000000 0.000000 -2.675922 -5.198923 19.371019 -25.707938 -36.918746 -8.711606 -0.051829 21.533382 7.382129 0.000000 0.000000 0.000000 7.125000 0.000000 0.000000 22.282916 36.482615 4.976746
1.165147 15.451936 30.155024 -179.628299 6.867013 -172.183563 0.000000 0.000000 0.000000 -13.184877 -16.963607 -33.469917 2.003028 8.871884 25.395779 -1.278190 22.458773 3.574961 0.091843 -1.936491 -5.330848 0.000000 0.000000 0.000000 23.835539 -0.151036 21.921814 0.000000 0.000000 0.000000 0.391046 -11.083219 -2.826449 -2.536038 9.903118 -28.663619 -5.047596 6.069172 -6.213641 -0.250295 8.499738 0.929990 3.277524 4.118370 3.737235 1.266551 0.011774 -28.871605 0.295086 -6.272932 44.867670 -2.594496 -3.175716 25.675345 0.000000 0.000000 0.000000 2.716987 4.015183 59.356652 5.942029 -10.165415 0.528946 -1.132906 116.072954 -5.795016 0.000000 0.000000 0.000000 -7.125000 0.000000 0.000000 -22.778221 34.940175 -6.030864 0.000000 0.000000 0.000000 -2.574587 -5.144708 19.415343 -25.637445 -36.848295 -8.669327 -0.105335 21.586178 7.372655 0.000000 0.000000 0.000000 7.125000 0.000000 0.000000 22.237799 36.477398 4.968316
1.159889 15.460491 30.072428 -179.808182 6.833332 -172.189823 0.000000 0.000000 0.000000 -13.557624 -16.854258 -33.346586 2.035833 8.940248 25.608675 -1.217171 21.966035 3.526088 0.071184 -1.715623 -4.720622 0.000000 0.000000 0.000000 23.559412 -0.259676 22.138216 0.000000 0.000000 0.000000 0.380654 -10.995072 -2.241391 -2.539794 9.909921 -28.685488 -5.242212 6.016418 -6.302748 -0.299794 8.453578 0.939005 3.339962 4.090365 3.780724 1.021643 -0.030797 -28.857123 0.543667 -6.366087 44.894631 -2.434146 -3.227302 25.739869 0.000000 0.000000 0.000000 2.635685 3.883463 60.316878 5.939900 -10.161867 0.528571 -1.063456 116.858346 -5.836585 0.000000 0.000000 0.000000 -7.125000 0.000000 0.000000 -22.735358 34.982705 -5.992258 0.000000 0.000000 0.000000 -2.473251 -5.090492 19.459667 -25.566953 -36.777845 -8.627048 -0.158841 21.638974 7.363181 0.000000 0.000000 0.000000 7.125000 0.000000 0.000000 22.192682 36.472181 4.959885
1.154494 15.467183 29.990307 -179.965698 6.809682 -172.195745 0.000000 0.000000 0.000000 -13.900005 -16.755143 -33.209801 2.065825 9.001562 25.800425 -1.158966 21.523115 3.571429 0.055947 -1.509057 -4.151099 0.000000 0.000000 0.000000 23.390241 -0.140881 21.728606 -0.014302 -0.449243 1.235352 0.377514 -10.938917 -2.287937 -2.572899 9.968813 -28.876130 -5.411072 5.970001 -6.393651 -0.346006 8.414840 0.949816 3.392741 4.066223 3.830008 0.956520 -0.037512 -28.863889 0.654791 -6.384617 44.862218 -2.358655 -3.230934 25.723024 0.000000 0.000000 0.000000 2.563194 3.769400 61.123175 5.940822 -10.163403 0.528737 -1.027457 117.500995 -5.891168 0.000000 0.000000 0.000000 -7.125000 0.000000 0.000000 -22.722047 35.035299 -5.956702 0.000000 0.000000 0.000000 -2.370594 -5.031397 19.497145 -25.513236 -36.723932 -8.594937 -0.207060 21.682891 7.334153 0.000000 0.000000 0.000000 7.125000 0.000000 0.000000 22.146277 36.448562 4.961858
1.149069 15.473444 29.908295 -180.118035 6.788355 -172.201588 0.000000 0.000000 0.000000 -14.235355 -16.658399 -33.069902 2.095165 9.061245 25.987278 -1.101412 21.091729 3.638582 0.041965 -1.305801 -3.590998 0.000000 0.000000 0.000000 23.245834 0.030572 21.174057 -0.031914 -1.002499 2.756721 0.376053 -10.890169 -2.480717 -2.612798 10.039764 -29.105846 -5.573968 5.925051 -6.484970 -0.391457 8.377820 0.961043 3.443283 4.042976 3.880634 0.933023 -0.035926 -28.875575 0.734089 -6.385869 44.816058 -2.302812 -3.223463 25.687340 0.000000 0.000000 0.000000 2.492743 3.659425 61.893835 5.942449 -10.166116 0.529029 -0.999201 118.110594 -5.948764 0.000000 0.000000 0.000000 -7.125000 0.000000 0.000000 -22.715578 35.090224 -5.921852 0.000000 0.000000 0.000000 -2.267631 -4.971172 19.533038 -25.463403 -36.673849 -8.565179 -0.254055 21.724753 7.300597 0.000000 0.000000 0.000000 7.125000 0.000000 0.000000 22.099574 36.420682 4.966241
1.143747 15.479982 29.826561 -180.288082 6.756420 -172.208993 0.000000 0.000000 0.000000 -14.588485 -16.573964 -32.910174 2.122162 9.115841 26.158470 -1.053059 20.707864 3.668945 0.029616 -1.091121 -2.999872 0.000000 0.000000 0.000000 23.091738 0.211348 20.552993 -0.069598 -1.595444 4.391621 0.374662 -10.844876 -2.690563 -2.653358 10.111202 -29.337784 -5.755529 5.875187 -6.572972 -0.441370 8.336563 0.972409 3.498479 4.017403 3.928326 0.896642 -0.039167 -28.892609 0.820680 -6.394014 44.773422 -2.243097 -3.219760 25.659781 0.000000 0.000000 0.000000 2.423352 3.552767 62.554817 5.943851 -10.168447 0.529287 -0.974158 118.619110 -6.000960 0.000000 0.000000 0.000000 -7.125000 0.000000 0.000000 -22.710168 35.139940 -5.890440 0.000000 0.000000 0.000000 -2.161976 -4.907370 19.553531 -25.400218 -36.610153 -8.527504 -0.307769 21.780591 7.261190 0.000000 0.000000 0.000000 7.125000 0.000000 0.000000 22.045961 36.387784 4.971647
